<mxfile host="Electron" modified="2024-06-23T20:58:18.028Z" agent="Mozilla/5.0 (Windows NT 10.0; Win64; x64) AppleWebKit/537.36 (KHTML, like Gecko) draw.io/24.4.0 Chrome/120.0.6099.109 Electron/28.1.0 Safari/537.36" etag="GB6KkrQsUaJbNocyr-Bh" version="24.4.0" type="device">
  <diagram name="Page-1" id="pcZPsYxxHc4GzHR4JEfV">
    <mxGraphModel dx="8180" dy="2813" grid="1" gridSize="10" guides="1" tooltips="1" connect="1" arrows="1" fold="1" page="1" pageScale="1" pageWidth="850" pageHeight="1100" math="0" shadow="0">
      <root>
        <mxCell id="0" />
        <mxCell id="1" parent="0" />
        <mxCell id="uoi0c4_oW_lcbLgrgFSw-39" value="" style="rounded=0;whiteSpace=wrap;html=1;fillColor=none;" parent="1" vertex="1">
          <mxGeometry x="-2730" y="40" width="1330" height="1230" as="geometry" />
        </mxCell>
        <mxCell id="w_F2LyH5jyIpAVGrZFQE-1" value="" style="rounded=0;whiteSpace=wrap;html=1;fillColor=none;" parent="1" vertex="1">
          <mxGeometry x="180" y="40" width="620" height="1510" as="geometry" />
        </mxCell>
        <mxCell id="w_F2LyH5jyIpAVGrZFQE-2" value="" style="rounded=0;whiteSpace=wrap;html=1;fillColor=none;" parent="1" vertex="1">
          <mxGeometry x="190" y="50" width="600" height="1490" as="geometry" />
        </mxCell>
        <mxCell id="w_F2LyH5jyIpAVGrZFQE-3" value="" style="rounded=0;whiteSpace=wrap;html=1;fillColor=none;" parent="1" vertex="1">
          <mxGeometry x="580" y="60" width="200" height="120" as="geometry" />
        </mxCell>
        <mxCell id="w_F2LyH5jyIpAVGrZFQE-4" value="" style="rounded=0;whiteSpace=wrap;html=1;fillColor=none;" parent="1" vertex="1">
          <mxGeometry x="350" y="60" width="220" height="120" as="geometry" />
        </mxCell>
        <mxCell id="w_F2LyH5jyIpAVGrZFQE-5" value="" style="rounded=0;whiteSpace=wrap;html=1;fillColor=none;" parent="1" vertex="1">
          <mxGeometry x="640" y="190" width="140" height="140" as="geometry" />
        </mxCell>
        <mxCell id="w_F2LyH5jyIpAVGrZFQE-6" value="" style="rounded=0;whiteSpace=wrap;html=1;fillColor=none;" parent="1" vertex="1">
          <mxGeometry x="440" y="340" width="340" height="240" as="geometry" />
        </mxCell>
        <mxCell id="w_F2LyH5jyIpAVGrZFQE-7" value="" style="rounded=0;whiteSpace=wrap;html=1;fillColor=none;" parent="1" vertex="1">
          <mxGeometry x="200" y="240" width="180" height="400" as="geometry" />
        </mxCell>
        <mxCell id="w_F2LyH5jyIpAVGrZFQE-9" value="" style="rounded=0;whiteSpace=wrap;html=1;fillColor=none;" parent="1" vertex="1">
          <mxGeometry x="310" y="700" width="320" height="160" as="geometry" />
        </mxCell>
        <mxCell id="w_F2LyH5jyIpAVGrZFQE-10" value="" style="rounded=0;whiteSpace=wrap;html=1;fillColor=none;" parent="1" vertex="1">
          <mxGeometry x="640" y="700" width="140" height="160" as="geometry" />
        </mxCell>
        <mxCell id="w_F2LyH5jyIpAVGrZFQE-11" value="" style="rounded=0;whiteSpace=wrap;html=1;fillColor=none;" parent="1" vertex="1">
          <mxGeometry x="440" y="870" width="340" height="200" as="geometry" />
        </mxCell>
        <mxCell id="w_F2LyH5jyIpAVGrZFQE-15" value="" style="rounded=0;whiteSpace=wrap;html=1;fillColor=none;" parent="1" vertex="1">
          <mxGeometry x="440" y="1080" width="340" height="220" as="geometry" />
        </mxCell>
        <mxCell id="w_F2LyH5jyIpAVGrZFQE-16" value="" style="rounded=0;whiteSpace=wrap;html=1;fillColor=none;" parent="1" vertex="1">
          <mxGeometry x="440" y="1310" width="340" height="220" as="geometry" />
        </mxCell>
        <mxCell id="w_F2LyH5jyIpAVGrZFQE-17" value="" style="rounded=0;whiteSpace=wrap;html=1;fillColor=none;" parent="1" vertex="1">
          <mxGeometry x="200" y="1490" width="160" height="40" as="geometry" />
        </mxCell>
        <mxCell id="w_F2LyH5jyIpAVGrZFQE-18" value="" style="rounded=0;whiteSpace=wrap;html=1;fillColor=none;" parent="1" vertex="1">
          <mxGeometry x="200" y="1380" width="160" height="100" as="geometry" />
        </mxCell>
        <mxCell id="w_F2LyH5jyIpAVGrZFQE-19" value="" style="rounded=0;whiteSpace=wrap;html=1;fillColor=none;" parent="1" vertex="1">
          <mxGeometry x="200" y="1080" width="160" height="290" as="geometry" />
        </mxCell>
        <mxCell id="w_F2LyH5jyIpAVGrZFQE-20" value="" style="rounded=0;whiteSpace=wrap;html=1;fillColor=none;" parent="1" vertex="1">
          <mxGeometry x="200" y="920" width="160" height="150" as="geometry" />
        </mxCell>
        <mxCell id="w_F2LyH5jyIpAVGrZFQE-21" value="" style="rounded=0;whiteSpace=wrap;html=1;fillColor=none;" parent="1" vertex="1">
          <mxGeometry x="-20" y="440" width="190" height="270" as="geometry" />
        </mxCell>
        <mxCell id="w_F2LyH5jyIpAVGrZFQE-22" value="" style="rounded=0;whiteSpace=wrap;html=1;fillColor=none;" parent="1" vertex="1">
          <mxGeometry x="-10" y="450" width="170" height="250" as="geometry" />
        </mxCell>
        <mxCell id="w_F2LyH5jyIpAVGrZFQE-23" value="" style="rounded=0;whiteSpace=wrap;html=1;fillColor=none;" parent="1" vertex="1">
          <mxGeometry x="80" y="510" width="70" height="130" as="geometry" />
        </mxCell>
        <mxCell id="w_F2LyH5jyIpAVGrZFQE-24" value="" style="rounded=0;whiteSpace=wrap;html=1;fillColor=none;" parent="1" vertex="1">
          <mxGeometry y="510" width="70" height="130" as="geometry" />
        </mxCell>
        <mxCell id="LMnNKQHc30ddsez57Ubo-1" value="" style="rounded=0;whiteSpace=wrap;html=1;fillColor=none;" vertex="1" parent="1">
          <mxGeometry x="-1160" y="40" width="960" height="660" as="geometry" />
        </mxCell>
        <mxCell id="LMnNKQHc30ddsez57Ubo-13" value="" style="rounded=0;whiteSpace=wrap;html=1;fillColor=none;" vertex="1" parent="1">
          <mxGeometry x="-1150" y="50" width="750" height="640" as="geometry" />
        </mxCell>
        <mxCell id="LMnNKQHc30ddsez57Ubo-9" value="" style="rounded=0;whiteSpace=wrap;html=1;fillColor=none;" vertex="1" parent="1">
          <mxGeometry x="-600" y="510" width="190" height="170" as="geometry" />
        </mxCell>
        <mxCell id="LMnNKQHc30ddsez57Ubo-7" value="" style="rounded=0;whiteSpace=wrap;html=1;fillColor=none;" vertex="1" parent="1">
          <mxGeometry x="-590" y="600" width="130" height="70" as="geometry" />
        </mxCell>
        <mxCell id="LMnNKQHc30ddsez57Ubo-8" value="" style="rounded=0;whiteSpace=wrap;html=1;fillColor=none;" vertex="1" parent="1">
          <mxGeometry x="-590" y="520" width="130" height="70" as="geometry" />
        </mxCell>
        <mxCell id="LMnNKQHc30ddsez57Ubo-11" value="" style="rounded=0;whiteSpace=wrap;html=1;fillColor=none;" vertex="1" parent="1">
          <mxGeometry x="-370" y="150" width="160" height="540" as="geometry" />
        </mxCell>
        <mxCell id="LMnNKQHc30ddsez57Ubo-12" value="" style="rounded=0;whiteSpace=wrap;html=1;fillColor=none;" vertex="1" parent="1">
          <mxGeometry x="-360" y="160" width="140" height="520" as="geometry" />
        </mxCell>
        <mxCell id="LMnNKQHc30ddsez57Ubo-14" value="" style="rounded=0;whiteSpace=wrap;html=1;fillColor=none;" vertex="1" parent="1">
          <mxGeometry x="-600" y="240" width="190" height="260" as="geometry" />
        </mxCell>
        <mxCell id="LMnNKQHc30ddsez57Ubo-15" value="" style="rounded=0;whiteSpace=wrap;html=1;fillColor=none;" vertex="1" parent="1">
          <mxGeometry x="-600" y="150" width="190" height="80" as="geometry" />
        </mxCell>
        <mxCell id="LMnNKQHc30ddsez57Ubo-16" value="" style="rounded=0;whiteSpace=wrap;html=1;fillColor=none;" vertex="1" parent="1">
          <mxGeometry x="-490" y="60" width="80" height="80" as="geometry" />
        </mxCell>
        <mxCell id="LMnNKQHc30ddsez57Ubo-17" value="" style="rounded=0;whiteSpace=wrap;html=1;fillColor=none;" vertex="1" parent="1">
          <mxGeometry x="-600" y="60" width="100" height="40" as="geometry" />
        </mxCell>
        <mxCell id="LMnNKQHc30ddsez57Ubo-18" value="" style="rounded=0;whiteSpace=wrap;html=1;fillColor=none;" vertex="1" parent="1">
          <mxGeometry x="-1140" y="60" width="460" height="620" as="geometry" />
        </mxCell>
        <mxCell id="LMnNKQHc30ddsez57Ubo-19" value="" style="rounded=0;whiteSpace=wrap;html=1;fillColor=none;" vertex="1" parent="1">
          <mxGeometry x="-2560" y="990" width="1150" height="270" as="geometry" />
        </mxCell>
        <mxCell id="LMnNKQHc30ddsez57Ubo-20" value="" style="rounded=0;whiteSpace=wrap;html=1;fillColor=none;" vertex="1" parent="1">
          <mxGeometry x="-2440" y="50" width="770" height="150" as="geometry" />
        </mxCell>
        <mxCell id="LMnNKQHc30ddsez57Ubo-21" value="" style="rounded=0;whiteSpace=wrap;html=1;fillColor=none;" vertex="1" parent="1">
          <mxGeometry x="-1660" y="50" width="250" height="630" as="geometry" />
        </mxCell>
        <mxCell id="LMnNKQHc30ddsez57Ubo-22" value="" style="rounded=0;whiteSpace=wrap;html=1;fillColor=none;" vertex="1" parent="1">
          <mxGeometry x="-2560" y="830" width="570" height="120" as="geometry" />
        </mxCell>
        <mxCell id="LMnNKQHc30ddsez57Ubo-23" value="" style="rounded=0;whiteSpace=wrap;html=1;fillColor=none;" vertex="1" parent="1">
          <mxGeometry x="-1610" y="500" width="190" height="170" as="geometry" />
        </mxCell>
        <mxCell id="LMnNKQHc30ddsez57Ubo-24" value="" style="rounded=0;whiteSpace=wrap;html=1;fillColor=none;" vertex="1" parent="1">
          <mxGeometry x="-1600" y="590" width="130" height="70" as="geometry" />
        </mxCell>
        <mxCell id="LMnNKQHc30ddsez57Ubo-25" value="" style="rounded=0;whiteSpace=wrap;html=1;fillColor=none;" vertex="1" parent="1">
          <mxGeometry x="-1600" y="510" width="130" height="70" as="geometry" />
        </mxCell>
        <mxCell id="LMnNKQHc30ddsez57Ubo-26" value="" style="rounded=0;whiteSpace=wrap;html=1;fillColor=none;" vertex="1" parent="1">
          <mxGeometry x="-1610" y="350" width="190" height="140" as="geometry" />
        </mxCell>
        <mxCell id="LMnNKQHc30ddsez57Ubo-28" value="" style="rounded=0;whiteSpace=wrap;html=1;fillColor=none;" vertex="1" parent="1">
          <mxGeometry x="-1610" y="200" width="190" height="140" as="geometry" />
        </mxCell>
        <mxCell id="LMnNKQHc30ddsez57Ubo-29" value="" style="rounded=0;whiteSpace=wrap;html=1;fillColor=none;" vertex="1" parent="1">
          <mxGeometry x="-1650" y="60" width="230" height="110" as="geometry" />
        </mxCell>
        <mxCell id="LMnNKQHc30ddsez57Ubo-31" value="" style="rounded=0;whiteSpace=wrap;html=1;fillColor=none;" vertex="1" parent="1">
          <mxGeometry x="-1910" y="60" width="230" height="110" as="geometry" />
        </mxCell>
        <mxCell id="LMnNKQHc30ddsez57Ubo-32" value="" style="rounded=0;whiteSpace=wrap;html=1;fillColor=none;" vertex="1" parent="1">
          <mxGeometry x="-2150" y="60" width="230" height="110" as="geometry" />
        </mxCell>
        <mxCell id="LMnNKQHc30ddsez57Ubo-33" value="" style="rounded=0;whiteSpace=wrap;html=1;fillColor=none;" vertex="1" parent="1">
          <mxGeometry x="-2430" y="60" width="130" height="110" as="geometry" />
        </mxCell>
        <mxCell id="LMnNKQHc30ddsez57Ubo-34" value="" style="rounded=0;whiteSpace=wrap;html=1;fillColor=none;" vertex="1" parent="1">
          <mxGeometry x="-2220" y="60" width="60" height="80" as="geometry" />
        </mxCell>
        <mxCell id="LMnNKQHc30ddsez57Ubo-35" value="" style="rounded=0;whiteSpace=wrap;html=1;fillColor=none;" vertex="1" parent="1">
          <mxGeometry x="-2290" y="60" width="60" height="110" as="geometry" />
        </mxCell>
        <mxCell id="LMnNKQHc30ddsez57Ubo-36" value="" style="rounded=0;whiteSpace=wrap;html=1;fillColor=none;" vertex="1" parent="1">
          <mxGeometry x="-1590" y="1000" width="170" height="250" as="geometry" />
        </mxCell>
        <mxCell id="LMnNKQHc30ddsez57Ubo-37" value="" style="rounded=0;whiteSpace=wrap;html=1;fillColor=none;" vertex="1" parent="1">
          <mxGeometry x="-1500" y="1060" width="70" height="130" as="geometry" />
        </mxCell>
        <mxCell id="LMnNKQHc30ddsez57Ubo-38" value="" style="rounded=0;whiteSpace=wrap;html=1;fillColor=none;" vertex="1" parent="1">
          <mxGeometry x="-1580" y="1060" width="70" height="130" as="geometry" />
        </mxCell>
        <mxCell id="LMnNKQHc30ddsez57Ubo-39" value="" style="rounded=0;whiteSpace=wrap;html=1;fillColor=none;" vertex="1" parent="1">
          <mxGeometry x="-1860" y="1040" width="260" height="210" as="geometry" />
        </mxCell>
        <mxCell id="LMnNKQHc30ddsez57Ubo-40" value="" style="rounded=0;whiteSpace=wrap;html=1;fillColor=none;" vertex="1" parent="1">
          <mxGeometry x="-2140" y="1040" width="270" height="210" as="geometry" />
        </mxCell>
        <mxCell id="LMnNKQHc30ddsez57Ubo-41" value="" style="rounded=0;whiteSpace=wrap;html=1;fillColor=none;" vertex="1" parent="1">
          <mxGeometry x="-2410" y="1040" width="260" height="210" as="geometry" />
        </mxCell>
        <mxCell id="LMnNKQHc30ddsez57Ubo-42" value="" style="rounded=0;whiteSpace=wrap;html=1;fillColor=none;" vertex="1" parent="1">
          <mxGeometry x="-2550" y="1040" width="60" height="210" as="geometry" />
        </mxCell>
        <mxCell id="LMnNKQHc30ddsez57Ubo-43" value="" style="rounded=0;whiteSpace=wrap;html=1;fillColor=none;" vertex="1" parent="1">
          <mxGeometry x="-2480" y="1040" width="60" height="210" as="geometry" />
        </mxCell>
        <mxCell id="LMnNKQHc30ddsez57Ubo-44" value="" style="rounded=0;whiteSpace=wrap;html=1;fillColor=none;" vertex="1" parent="1">
          <mxGeometry x="-1980" y="830" width="380" height="120" as="geometry" />
        </mxCell>
        <mxCell id="LMnNKQHc30ddsez57Ubo-45" value="" style="rounded=0;whiteSpace=wrap;html=1;fillColor=none;" vertex="1" parent="1">
          <mxGeometry x="-2720" y="830" width="150" height="430" as="geometry" />
        </mxCell>
        <mxCell id="LMnNKQHc30ddsez57Ubo-46" value="" style="rounded=0;whiteSpace=wrap;html=1;fillColor=none;" vertex="1" parent="1">
          <mxGeometry x="-2680" y="80" width="110" height="120" as="geometry" />
        </mxCell>
        <mxCell id="LMnNKQHc30ddsez57Ubo-47" value="" style="rounded=0;whiteSpace=wrap;html=1;fillColor=none;" vertex="1" parent="1">
          <mxGeometry x="-2670" y="140" width="90" height="50" as="geometry" />
        </mxCell>
        <mxCell id="LMnNKQHc30ddsez57Ubo-48" value="" style="rounded=0;whiteSpace=wrap;html=1;fillColor=none;" vertex="1" parent="1">
          <mxGeometry x="-2670" y="90" width="90" height="50" as="geometry" />
        </mxCell>
        <mxCell id="LMnNKQHc30ddsez57Ubo-49" value="" style="rounded=0;whiteSpace=wrap;html=1;fillColor=none;" vertex="1" parent="1">
          <mxGeometry x="-2720" y="210" width="1050" height="610" as="geometry" />
        </mxCell>
      </root>
    </mxGraphModel>
  </diagram>
</mxfile>
